<?xml version="1.0" encoding="UTF-8"?>
<svg id="Capa_2" data-name="Capa 2" xmlns="http://www.w3.org/2000/svg" viewBox="0 0 18.3 18.34">
  <g id="Capa_1-2" data-name="Capa 1">
    <g>
      <g>
        <g>
          <rect x="13.43" y="5.53" width="2.1" height="2.1" transform="translate(28.97 13.17) rotate(-180)" fill="#fff"/>
          <rect x="13.43" y="2.77" width="2.1" height="2.1" transform="translate(28.97 7.64) rotate(-180)" fill="#fff"/>
          <rect x="16.2" y="5.53" width="2.1" height="2.1" transform="translate(34.5 13.17) rotate(-180)" fill="#fff"/>
          <rect x="10.73" y="5.53" width="2.1" height="2.1" transform="translate(23.57 13.17) rotate(-180)" fill="#fff"/>
          <rect x="10.73" y="2.77" width="2.1" height="2.1" transform="translate(23.57 7.64) rotate(-180)" fill="#fff"/>
          <rect x="10.73" y="0" width="2.1" height="2.1" transform="translate(23.57 2.1) rotate(-180)" fill="#fff"/>
        </g>
        <g>
          <rect x="2.76" y="10.7" width="2.1" height="2.1" fill="#fff"/>
          <rect x="2.76" y="13.47" width="2.1" height="2.1" fill="#fff"/>
          <rect x="0" y="10.7" width="2.1" height="2.1" fill="#fff"/>
          <rect x="5.46" y="10.7" width="2.1" height="2.1" fill="#fff"/>
          <rect x="5.46" y="13.47" width="2.1" height="2.1" fill="#fff"/>
          <rect x="5.46" y="16.23" width="2.1" height="2.1" fill="#fff"/>
        </g>
      </g>
      <g>
        <g>
          <g>
            <rect x="8.57" y="7.9" width=".52" height=".52" transform="translate(-3.19 8.63) rotate(-45)" fill="#fff"/>
            <rect x="9.31" y="7.9" width=".52" height=".52" transform="translate(-2.97 9.16) rotate(-45)" fill="#fff"/>
          </g>
          <g>
            <rect x="9.84" y="8.43" width=".52" height=".52" transform="translate(9.11 -4.6) rotate(45)" fill="#fff"/>
            <rect x="9.84" y="9.17" width=".52" height=".52" transform="translate(9.63 -4.38) rotate(45)" fill="#fff"/>
          </g>
        </g>
        <g>
          <g>
            <rect x="9.31" y="9.71" width=".52" height=".52" transform="translate(23.38 10.25) rotate(135)" fill="#fff"/>
            <rect x="8.56" y="9.71" width=".52" height=".52" transform="translate(22.12 10.78) rotate(135)" fill="#fff"/>
          </g>
          <g>
            <rect x="8.03" y="9.18" width=".52" height=".52" transform="translate(7.49 21.98) rotate(-135)" fill="#fff"/>
            <rect x="8.03" y="8.44" width=".52" height=".52" transform="translate(8.01 20.71) rotate(-135)" fill="#fff"/>
          </g>
        </g>
      </g>
    </g>
  </g>
</svg>